<svg version="1.2" xmlns="http://www.w3.org/2000/svg" viewBox="0 0 1551 344" width="1551" height="344">
	<title>bc-logo-green02 copy-svg</title>
	<style>
		.s0 { fill: #009758 } 
	</style>
	<path id="Layer" fill-rule="evenodd" class="s0" d="m343.4 171.6l-171.7 171.6-171.7-171.6 171.7-171.6zm-337.1 0l165.4 165.3 165.4-165.3-165.4-165.2zm93.4 42.1v-84.3h45.8l11.2 11.7v23l-6.5 6.9 6.5 6.7v24.3l-11.2 11.7zm14.4-49h28.2v-22.9h-28.2zm0 36.6h28.2v-24.2h-28.2zm71.5 0.7v-60.9l11.1-11.7h35.6l11.1 11.7v20.5h-14.3v-19.8h-29.2v59.5h29.2v-20h14.4v20.7l-11.2 11.7h-35.6z"/>
	<g id="Layer_2">
		<path id="Layer" fill-rule="evenodd" class="s0" d="m696.3 203.4v91.6h45.7v15.8h-63.5v-107.4zm-87 0l13.9 14.8v77.7l-13.9 14.9h-44.8l-13.9-14.9v-77.7l13.9-14.8zm-40.7 91.6h36.6v-75.8h-36.6zm98.5-239.8v-15.8h75.2v15.8h-28.7v91.6h-18v-91.6zm-48.3 75.8v15.8h-68.1v-107.4h68.1v15.8h-50.1v29.1h39.8v15.8h-39.8v30.9zm-179.8 72.3h44.8l13.8 14.9v26.1h-17.9v-25.1h-36.7v75.8h36.7v-25.5h17.9v26.4l-13.8 14.8h-44.8l-13.9-14.8v-77.7zm43.3-56.5h-57.2v-107.4h57.2l13.9 14.8v29.4l-8.2 8.7 8.2 8.6v31zm-39.4-15.8h35.5v-31h-35.5zm0-46.6h35.5v-29.2h-35.5zm710.4 134.8v-15.8h75.2v15.8h-28.7v91.6h-18v-91.6zm128.4-15.8h18v107.4h-18zm-202.7-101.4l25.3 45h-20.5l-22.5-42.8h-15.6v42.7h-17.8v-107.4h57.3l13.9 14.8v31.2zm2.3-13.7v-33h-35.7v33zm316.4 205.2l19.4-90h18.4l-25.6 107.4h-30.8l-24-107.4h17.8l19.3 90zm153.5-74.2h-50.1v29.1h39.9v15.8h-39.9v30.9h50.1v15.8h-68v-107.4h68zm-646.5-72.4v-107.4h68v15.8h-50v29.1h39.8v15.9h-39.8v30.8h50v15.8zm2.3 164v-107.4h68v15.8h-50.1v29.1h39.9v15.8h-39.9v30.9h50.1v15.8zm-125.5-255.6v-15.8h75.2v15.8h-28.7v91.6h-18v-91.6zm29.2 148.2v91.6h45.7v15.8h-63.5v-107.4zm233.5 0h44.8l13.9 14.8v26.1h-18v-25.1h-36.6v75.8h36.6v-25.5h18v26.4l-13.9 14.9h-44.8l-13.9-14.9v-77.7z"/>
	</g>
</svg>