<?xml version="1.0" encoding="UTF-8" standalone="no"?>
<!-- Created with Inkscape (http://www.inkscape.org/) -->

<svg
   xmlns:dc="http://purl.org/dc/elements/1.1/"
   xmlns:cc="http://creativecommons.org/ns#"
   xmlns:rdf="http://www.w3.org/1999/02/22-rdf-syntax-ns#"
   xmlns:svg="http://www.w3.org/2000/svg"
   xmlns="http://www.w3.org/2000/svg"
   xmlns:sodipodi="http://sodipodi.sourceforge.net/DTD/sodipodi-0.dtd"
   xmlns:inkscape="http://www.inkscape.org/namespaces/inkscape"
   version="1.1"
   id="svg815"
   width="2037.436"
   height="1566.5293"
   viewBox="0 0 2037.436 1566.5293"
   sodipodi:docname="Radio Łódź 2013.svg"
   inkscape:version="0.92.2 (5c3e80d, 2017-08-06)">
  <metadata
     id="metadata821">
    <rdf:RDF>
      <cc:Work
         rdf:about="">
        <dc:format>image/svg+xml</dc:format>
        <dc:type
           rdf:resource="http://purl.org/dc/dcmitype/StillImage" />
        <dc:title></dc:title>
      </cc:Work>
    </rdf:RDF>
  </metadata>
  <defs
     id="defs819" />
  <sodipodi:namedview
     pagecolor="#ffffff"
     bordercolor="#666666"
     borderopacity="1"
     objecttolerance="10"
     gridtolerance="10"
     guidetolerance="10"
     inkscape:pageopacity="0"
     inkscape:pageshadow="2"
     inkscape:window-width="1920"
     inkscape:window-height="1018"
     id="namedview817"
     showgrid="false"
     showguides="false"
     inkscape:zoom="0.38433653"
     inkscape:cx="1734.4537"
     inkscape:cy="635.09827"
     inkscape:window-x="-8"
     inkscape:window-y="-8"
     inkscape:window-maximized="1"
     inkscape:current-layer="svg815"
     fit-margin-top="0"
     fit-margin-left="0"
     fit-margin-right="0"
     fit-margin-bottom="0">
    <inkscape:grid
       type="xygrid"
       id="grid1115"
       originx="0.31307013"
       originy="-2.4999963e-008" />
  </sodipodi:namedview>
  <g
     id="g1111"
     transform="translate(-1.7670299,4.8731094)">
    <g
       id="flowRoot833"
       style="font-style:normal;font-variant:normal;font-weight:bold;font-stretch:normal;font-size:192px;line-height:1.25;font-family:'Futura Std';-inkscape-font-specification:'Futura Std Bold';letter-spacing:0px;word-spacing:0px;fill:#000000;fill-opacity:1;stroke:none;stroke-width:0.44591671"
       transform="matrix(2.2350847,0,0,2.2500829,119.94172,-1134.9908)"
       aria-label="radio">
      <path
         id="path874"
         style="fill:#000000;stroke-width:0.44591671"
         d="m -17.928578,937.57588 h -34.944 v 98.49602 h 34.944 v -39.74402 c 0,-16.896 4.8,-29.76 24.1919999,-29.76 5.3760001,0 9.9840001,0.576 14.7840001,3.264 v -33.6 h -6.72 c -13.63200012,0 -25.152,5.376 -31.872,17.472 h -0.384 z"
         inkscape:connector-curvature="0" />
      <path
         id="path876"
         style="fill:#000000;stroke-width:0.44591671"
         d="m 85.583422,964.64788 c 14.208,0 22.463998,10.176 22.463998,22.272 0,12.48 -8.255998,22.08002 -22.463998,22.08002 -14.208,0 -22.464,-9.60002 -22.464,-22.08002 0,-12.096 8.256,-22.272 22.464,-22.272 z m 56.255998,-27.072 h -34.944 v 9.6 c -7.295998,-8.64 -19.199998,-12.864 -30.527998,-12.864 -29.184,0 -49.344,24.192 -49.344,52.416 0,28.22402 20.544,52.60802 49.728,52.60802 11.52,0 23.615998,-4.416 29.759998,-14.208 h 0.384 v 10.944 h 34.944 z"
         inkscape:connector-curvature="0" />
      <path
         id="path878"
         style="fill:#000000;stroke-width:0.44591671"
         d="m 239.11442,1036.0719 h 34.944 V 876.71188 h -34.944 v 70.464 c -7.296,-8.64 -19.2,-12.864 -30.528,-12.864 -29.184,0 -49.344,24.192 -49.344,52.416 0,28.22402 20.544,52.60802 49.728,52.60802 11.52,0 23.616,-4.416 29.76,-14.208 h 0.384 z m -21.312,-71.42402 c 14.208,0 22.464,10.176 22.464,22.272 0,12.48 -8.256,22.08002 -22.464,22.08002 -14.208,0 -22.464,-9.60002 -22.464,-22.08002 0,-12.096 8.256,-22.272 22.464,-22.272 z"
         inkscape:connector-curvature="0" />
      <path
         id="path880"
         style="fill:#000000;stroke-width:0.44591671"
         d="m 330.82142,937.57588 h -34.944 v 98.49602 h 34.944 z m -17.472,-57.408 c -10.752,0 -19.584,8.832 -19.584,19.584 0,10.752 8.832,19.584 19.584,19.584 10.752,0 19.584,-8.832 19.584,-19.584 0,-10.752 -8.832,-19.584 -19.584,-19.584 z"
         inkscape:connector-curvature="0" />
      <path
         id="path882"
         style="fill:#000000;stroke-width:0.44591671"
         d="m 406.03442,934.31188 c -31.68,0 -59.328,19.008 -59.328,52.608 0,33.60002 27.84,52.41602 59.328,52.41602 31.68,0 59.328,-19.008 59.328,-52.41602 0,-33.6 -27.648,-52.608 -59.328,-52.608 z m 0,30.336 c 14.208,0 22.464,10.176 22.464,22.272 0,12.48 -8.256,22.08002 -22.464,22.08002 -14.208,0 -22.464,-9.60002 -22.464,-22.08002 0,-12.096 8.256,-22.272 22.464,-22.272 z"
         inkscape:connector-curvature="0" />
    </g>
    <g
       style="fill:#000000"
       id="g1085">
      <path
         style="font-style:normal;font-variant:normal;font-weight:bold;font-stretch:normal;font-size:medium;line-height:1.25;font-family:'Futura Std';-inkscape-font-specification:'Futura Std Bold';letter-spacing:0px;word-spacing:0px;fill:#000000;fill-opacity:1;stroke:none;stroke-width:1"
         d="m 2.2871094,1241.1602 v 310.2109 H 180.93555 v -68.2969 H 83.529297 v -87.2051 c 18.192653,-16.132 43.417973,-38.0879 43.417973,-38.0879 l -43.417973,-31.8808 v -84.7402 z"
         id="path865"
         inkscape:connector-curvature="0" />
      <path
         style="font-style:normal;font-variant:normal;font-weight:bold;font-stretch:normal;font-size:medium;line-height:1.25;font-family:'Futura Std';-inkscape-font-specification:'Futura Std Bold';letter-spacing:0px;word-spacing:0px;fill:#000000;fill-opacity:1;stroke:none;stroke-width:1"
         d="m 349.16406,1231.5586 c -83.9323,6.8548 -157.80859,70.4022 -157.80859,158.9473 0,100.3868 72.53752,171.1503 172.8457,171.1503 100.30818,0 172.84571,-70.7635 172.84571,-171.1503 0,-75.8928 -54.27817,-133.4382 -122.63477,-152.6602 l -62.08789,56.002 -33.11719,-25.7579 z m 15.03711,77.4844 c 48.49611,0 88.28711,39.0853 88.28711,81.873 0,53.4848 -39.791,92.5703 -88.28711,92.5703 -48.4961,0 -88.28711,-39.0855 -88.28711,-92.5703 0,-42.7877 39.79101,-81.873 88.28711,-81.873 z"
         id="path898"
         inkscape:connector-curvature="0" />
      <path
         inkscape:connector-curvature="0"
         id="path869"
         style="font-style:normal;font-variant:normal;font-weight:bold;font-stretch:normal;font-size:medium;line-height:1.25;font-family:'Futura Std';-inkscape-font-specification:'Futura Std Bold';letter-spacing:0px;word-spacing:0px;fill:#000000;fill-opacity:1;stroke:none;stroke-width:1"
         d="m 574.64863,1551.3708 h 115.23006 c 86.6298,0 158.75221,-67.8845 158.75221,-155.1058 0,-87.2212 -71.70792,-155.1057 -158.75221,-155.1057 H 574.64863 Z m 81.24134,-241.9156 h 19.06684 c 52.22658,0 89.11678,31.268 89.11678,86.8098 0,60.4789 -41.44966,86.8099 -89.94577,86.8099 h -18.23785 z" />
      <path
         style="font-style:normal;font-variant:normal;font-weight:bold;font-stretch:normal;font-size:medium;line-height:1.25;font-family:'Futura Std';-inkscape-font-specification:'Futura Std Bold';letter-spacing:0px;word-spacing:0px;fill:#000000;fill-opacity:1;stroke:none;stroke-width:1"
         d="m 983.38477,1241.1602 h -93.73829 v 68.2949 h 122.69142 l -147.97462,241.916 H 1132.127 v -68.2969 h -130.9805 l 147.1465,-241.914 h -95.461 l -58.41403,52.6875 -33.11719,-25.7579 z"
         id="path895"
         inkscape:connector-curvature="0" />
    </g>
  </g>
  <g
     id="g1087"
     transform="translate(1949.3033,587.44189)" />
  <g
     id="g1098"
     transform="translate(-1.7670299,3.5429688)">
    <path
       id="path1019"
       d="M 1261.0801,-3.5429688 C 1054.7096,-3.5428068 856.79317,78.439281 710.86719,224.36523 564.94121,370.2912 482.95916,568.20763 482.95898,774.57812 H 633.90039 C 633.90037,608.23924 699.9783,448.71505 817.59766,331.0957 935.21702,213.47636 1094.7412,147.3984 1261.0801,147.39844 c 166.3389,-1e-5 325.8651,66.07792 443.4844,183.69726 117.6194,117.61934 183.6972,277.14359 183.6972,443.48242 10e-5,166.33889 -66.0779,325.86498 -183.6972,443.48438 -117.6193,117.6193 -277.1455,183.6973 -443.4844,183.6973 v 150.9414 c 206.3712,3e-4 404.2904,-81.9799 550.2168,-227.9063 145.9265,-145.9265 227.9066,-343.8456 227.9062,-550.21678 -2e-4,-206.37081 -81.9798,-404.28882 -227.9062,-550.21484 C 1665.3705,78.437258 1467.4509,-3.5433001 1261.0801,-3.5429688 Z"
       style="opacity:1;vector-effect:none;fill:#e77716;fill-opacity:1;fill-rule:evenodd;stroke:none;stroke-width:3.7795279;stroke-linecap:butt;stroke-linejoin:miter;stroke-miterlimit:4;stroke-dasharray:none;stroke-dashoffset:0;stroke-opacity:1"
       inkscape:connector-curvature="0" />
    <path
       id="circle973"
       d="m 1261.0801,336.88281 c -116.0847,-1.5e-4 -227.4136,46.1132 -309.49807,128.19727 -82.08444,82.08406 -128.19896,193.41339 -128.19922,309.49804 h 150.24805 c 7.2e-4,-158.75351 128.69574,-287.44853 287.44924,-287.44921 158.7542,-3.4e-4 287.4505,128.69498 287.4511,287.44921 6e-4,158.75505 -128.6961,287.45148 -287.4511,287.45118 v 150.248 c 116.085,10e-5 227.4156,-46.1147 309.5,-128.1992 82.0845,-82.0845 128.1993,-193.41496 128.1992,-309.49998 -4e-4,-116.08465 -46.1147,-227.41398 -128.1992,-309.49804 -82.0844,-82.08406 -193.4154,-128.19738 -309.5,-128.19727 z"
       style="opacity:1;vector-effect:none;fill:#000000;fill-opacity:1;fill-rule:evenodd;stroke:none;stroke-width:3.7795279;stroke-linecap:butt;stroke-linejoin:miter;stroke-miterlimit:4;stroke-dasharray:none;stroke-dashoffset:0;stroke-opacity:1"
       inkscape:connector-curvature="0" />
    <path
       id="circle963"
       d="m 1261.0801,229.90625 c -144.456,-8e-5 -282.9948,57.38542 -385.14065,159.53125 C 773.79361,491.58333 716.40814,630.12212 716.4082,774.57812 h 18.28321 c 1.5e-4,-139.60737 55.45845,-273.49558 154.17578,-372.21289 98.71733,-98.71731 232.60551,-154.17565 372.21291,-154.17578 139.6073,1.7e-4 273.4975,55.45847 372.2148,154.17578 98.7173,98.71731 154.1757,232.60555 154.1758,372.21289 4e-4,139.60771 -55.4584,273.49908 -154.1758,372.21678 -98.7174,98.7178 -232.6071,154.1756 -372.2148,154.1758 v 18.2813 c 144.456,0 282.9968,-57.3855 385.1426,-159.5313 102.1458,-102.1459 159.5294,-240.68656 159.5293,-385.14258 10e-5,-144.456 -57.3835,-282.99479 -159.5293,-385.14062 C 1544.0769,287.29168 1405.5361,229.90621 1261.0801,229.90625 Z"
       style="opacity:1;vector-effect:none;fill:#000000;fill-opacity:1;fill-rule:evenodd;stroke:none;stroke-width:3.7795279;stroke-linecap:butt;stroke-linejoin:miter;stroke-miterlimit:4;stroke-dasharray:none;stroke-dashoffset:0;stroke-opacity:1"
       inkscape:connector-curvature="0" />
  </g>
</svg>
