<svg version="1.2" xmlns="http://www.w3.org/2000/svg" viewBox="0 0 1543 723" width="1543" height="723">
	<title>Fujitsu-Logo-svg</title>
	<style>
		.s0 { fill: #e60012 } 
	</style>
	<g id="layer1">
		<g id="g5598">
			<path id="path5600" class="s0" d="m84.7 427.4h78.1c14.8 0 28.7 10.8 29.4 25.1h0.7v-58.9h-108.2l-0.1-103.4h104.5c14.8 0 28.7 10.8 29.5 25.1h0.7l-0.1-58.9-219.2 0.1v0.6c14.8 0.8 25.8 16.4 25.8 31v270.9c0 14.5-11 30.2-25.8 31v0.7h110.6v-0.7c-14.8-0.8-26-16.5-26-31z"/>
		</g>
		<g id="g5602">
			<path id="path5604" class="s0" d="m310.9 500.8c0 34.7 29 64.8 64.8 64.8 35.7 0 64.8-30.5 64.8-65.2v-212.3c0-14.6-11.1-30.2-25.9-31v-0.6l110.7-0.1v0.7c-14.8 0.8-26 16.4-26 31v206.3c0 66.4-55 105-123.3 105-68.4 0-124-38.6-124-105l0.1-206.3c0-14.6-11.2-30.2-25.8-31v-0.7h110.4v0.7c-14.7 0.9-25.8 16.5-25.8 31z"/>
		</g>
		<g id="g5606">
			<path id="path5608" class="s0" d="m1215 310.5c-18.5-29.9-60.8-26.3-60.8-26.3-69.2 0-65.9 52.7-65.9 52.7 0 0-4.8 26.4 30 44.4l69.2 36.6c66.7 35.7 58.8 86.5 58.8 86.5 0 0 3 94.9-136.6 94.9 0 0-40.6 1.2-63.6-7.4l-19.7-61.4h0.7c21.3 30.6 83.1 35 83.1 35 78.5-3.5 79.1-56.6 79.1-56.6 0 0 3.5-22.9-27.2-39.5l-68.9-36.6c-71.9-38.3-63.6-89.9-63.6-89.9 0 0-1.7-93.3 121.8-93.3 0 0 55.5 1.4 64.3 10v50.9z"/>
		</g>
		<g id="g5610">
			<path id="path5612" class="s0" d="m675.9 140.1c12.2 12 29.3 19.4 48 19.4 37.6 0 68.1-29.6 68.1-66.2 0-36.4-30.5-66.1-68.1-66.1 0 0-52.4-4.8-76 60.4l0.1-48.9c17.6-22.4 44.7-38.6 75.9-38.6 53.1 0 96 41.7 96 93.2 0 51.5-42.9 93.4-96 93.4-26.5 0-50.5-10.4-67.8-27.4l-33-36.1c-9.1-8.8-21.5-14.1-35.2-14.1-27.5 0-49.8 21.6-49.8 48.3 0 26.8 22.3 48.4 49.8 48.4 0 0 36.8 4.8 60-39.5l0.1 39.2c-14.2 16.8-35.9 27.5-60.1 27.5-42.9 0-77.8-33.8-77.8-75.6 0-41.7 34.9-75.5 77.8-75.5 21.4 0 40.8 8.4 54.9 22.2z"/>
		</g>
		<g id="g5614">
			<path id="path5616" class="s0" d="m693.6 287.4c0-14.6-11.1-29.6-25.9-30.3v-0.6h110.4v0.6c-14.6 0.8-25.8 15.8-25.8 30.3v271.4c0 14.6 11.2 30.3 25.8 31.2v0.6h-110.4v-0.6c14.8-0.9 25.9-16.6 25.9-31.2z"/>
		</g>
		<g id="g5618">
			<path id="path5620" class="s0" d="m624.3 288.1c0-14.6 11-30.2 25.8-31v-0.6h-110.6v0.6c14.8 0.8 25.9 16.4 25.9 31l0.1 339.3c0 0-1.3 60-49.5 94.4l0.1 0.7c9.5-1.6 108.2-19.8 108.2-115.1z"/>
		</g>
		<g id="g5622">
			<path id="path5624" class="s0" d="m777.7 316.6h0.7c14.9-26.1 38-26.4 38-26.4h59.9v268.8c0 14.5-11.1 30.1-25.9 31v0.6h110.8v-0.6c-14.9-0.9-26.1-16.6-26.1-31l0.1-268.8 50-0.1c15.2 0 27.2 11.8 27.7 26.5h0.6l18.4-60.2h-235.8z"/>
		</g>
		<g id="g5626">
			<path id="path5628" class="s0" d="m1328.7 500.8c0 34.7 29 64.8 64.8 64.8 35.7 0 64.8-30.5 64.8-65.2v-212.3c0-14.6-11.1-30.2-25.9-31v-0.6l110.6-0.1v0.7c-14.7 0.8-25.8 16.4-25.8 31v206.3c0 66.4-55.1 105-123.5 105-68.3 0-123.9-38.6-123.9-105l0.1-206.3c0-14.6-11.2-30.2-25.9-31v-0.7h110.6v0.7c-14.8 0.9-26 16.5-26 31z"/>
		</g>
	</g>
</svg>