<?xml version="1.0" encoding="UTF-8"?>
<svg xmlns="http://www.w3.org/2000/svg" xmlns:xlink="http://www.w3.org/1999/xlink" width="373.8pt" height="247.71pt" viewBox="0 0 373.8 247.71" version="1.1">
<g id="surface1">
<path style=" stroke:none;fill-rule:evenodd;fill:rgb(0%,43.528748%,72.940063%);fill-opacity:1;" d="M 173.304688 102.71875 C 182.339844 80.414063 165.4375 74.367188 154.40625 74.375 L 117.925781 74.375 C 120.96875 76.464844 120.46875 79.222656 119.871094 80.925781 L 98.617188 148.859375 C 97.769531 151.550781 94.59375 154.371094 92.890625 154.820313 L 122.425781 154.8125 C 120.804688 154.515625 118.472656 152.210938 119.3125 149.050781 L 127.027344 124.480469 C 127.027344 124.480469 162.554688 129.273438 173.304688 102.71875 Z M 144.605469 80.59375 C 148.457031 80.59375 159.164063 81.109375 152.265625 101.359375 C 145.019531 122.617188 128.980469 118.242188 128.980469 118.242188 L 140.800781 80.59375 C 140.800781 80.59375 144.46875 80.59375 144.605469 80.59375 "/>
<path style=" stroke:none;fill-rule:evenodd;fill:rgb(0%,43.528748%,72.940063%);fill-opacity:1;" d="M 196.914063 154.820313 L 216.769531 154.8125 C 210.410156 152.773438 201.011719 146.765625 197.273438 142.484375 C 200.300781 139.175781 204.042969 135.027344 204.726563 126.578125 L 194.417969 126.578125 C 194.417969 126.578125 196.402344 127.714844 196.402344 130.128906 C 196.402344 132.371094 195.511719 135.445313 193.769531 137.636719 C 190.757813 133.164063 187.527344 128.058594 186.398438 120.574219 C 190.433594 118.558594 196.117188 116.386719 200.640625 112.433594 C 204.914063 108.679688 205.90625 105.144531 205.976563 102.835938 C 205.976563 102.734375 205.976563 102.644531 205.976563 102.542969 C 205.976563 100.136719 205.027344 97.867188 203.292969 96.136719 C 200.3125 93.179688 195.59375 91.972656 190.664063 92.894531 C 186.691406 93.644531 183.308594 95.753906 181.613281 97.332031 C 175.605469 102.941406 174.832031 112.222656 174.832031 116.410156 C 174.832031 117.429688 174.878906 118.207031 174.917969 118.65625 C 174.574219 118.792969 173.960938 119.027344 173.960938 119.027344 C 169.585938 120.636719 157.882813 123.773438 153.691406 133.386719 C 153.15625 134.597656 152.398438 137.234375 152.398438 140.308594 C 152.398438 142.949219 152.957031 145.894531 154.667969 148.585938 C 157.617188 153.191406 162.636719 156.109375 170.636719 155.96875 C 179.351563 155.824219 187.921875 149.875 189.460938 148.789063 C 190.976563 150.1875 194.871094 153.851563 196.914063 154.820313 Z M 196.910156 101.101563 C 195.878906 107.582031 187.503906 114.105469 185.449219 114.996094 C 185.089844 111.355469 185.246094 105.617188 188.304688 100.921875 C 190.324219 97.816406 192.980469 96.445313 195.144531 97.199219 C 196.863281 97.785156 197.070313 99.390625 196.910156 101.101563 Z M 185.246094 144.371094 C 184.074219 145.101563 179.472656 147.4375 175.132813 147.847656 C 171.132813 148.21875 164.472656 146.667969 164.484375 138.640625 C 164.492188 131.785156 171.953125 126.773438 175.980469 125.03125 C 177.652344 131.679688 181.320313 139.171875 185.246094 144.371094 "/>
<path style=" stroke:none;fill-rule:evenodd;fill:rgb(0%,43.528748%,72.940063%);fill-opacity:1;" d="M 257.289063 80.679688 C 269.09375 77.851563 278.832031 87.082031 279.710938 87.71875 L 283.085938 76.992188 C 278.410156 75.59375 244.539063 64.121094 220.609375 91.464844 C 205.898438 108.28125 202.285156 142.726563 220.953125 151.964844 C 240.953125 161.847656 263.011719 150.441406 264.632813 149.652344 L 273.769531 120.59375 C 274.753906 117.082031 276.984375 114.789063 280.925781 113.328125 L 249.191406 113.328125 C 253.824219 115.261719 253.488281 118.75 253.109375 120.175781 L 244 149.234375 C 242.78125 149.480469 217.285156 155.839844 231.558594 111.210938 C 234.640625 101.632813 243.242188 84.058594 257.289063 80.679688 "/>
</g>
</svg>
