<?xml version="1.0" encoding="UTF-8"?>
<svg xmlns="http://www.w3.org/2000/svg" xmlns:xlink="http://www.w3.org/1999/xlink" width="365pt" height="115.94pt" viewBox="0 0 365 115.94" version="1.1">
<g id="surface1">
<path style=" stroke:none;fill-rule:nonzero;fill:rgb(9.799194%,45.899963%,73.699951%);fill-opacity:1;" d="M 257.410156 105.109375 L 10.832031 105.109375 L 10.832031 10.8125 L 259.105469 10.8125 L 260.039063 12.984375 L 269.246094 34.371094 L 298.773438 102.960938 L 299.695313 105.109375 Z M 333.976563 60.101563 L 319.726563 23.640625 L 308.640625 23.640625 L 308.640625 44.011719 C 308.640625 47.121094 309.972656 48.632813 312.996094 48.632813 C 315.488281 48.632813 317.707031 48.011719 319.664063 46.945313 L 319.664063 57.789063 C 316.816406 59.480469 313.527344 60.546875 308.996094 60.546875 C 303.054688 60.546875 298.492188 58.84375 296.386719 53.800781 C 295.570313 51.820313 295.128906 49.332031 295.128906 46.234375 L 295.128906 23.640625 L 289.4375 23.640625 L 289.4375 12.085938 L 295.128906 12.085938 L 295.128906 -0.00390625 L 0 -0.00390625 L 0 115.941406 L 365 115.941406 L 365 12.085938 L 346.242188 60.101563 L 333.976563 60.101563 "/>
<path style=" stroke:none;fill-rule:nonzero;fill:rgb(9.799194%,45.899963%,73.699951%);fill-opacity:1;" d="M 308.640625 -0.00390625 L 308.640625 12.085938 L 329.53125 12.085938 L 329.835938 12.984375 L 340.199219 44.011719 L 350.648438 12.984375 L 350.953125 12.085938 L 365 12.085938 L 365 -0.00390625 L 308.640625 -0.00390625 "/>
<path style=" stroke:none;fill-rule:nonzero;fill:rgb(9.799194%,45.899963%,73.699951%);fill-opacity:1;" d="M 228.132813 62.269531 L 235.773438 40.695313 L 243.9375 62.269531 Z M 243.566406 90.886719 L 271.128906 90.886719 L 270.992188 80.109375 L 264.339844 80.109375 L 241.15625 24.984375 L 220.6875 24.984375 L 220.730469 35.152344 L 226.257813 35.152344 L 207.824219 80.109375 L 199.40625 80.109375 L 199.40625 90.886719 L 226.914063 90.886719 L 226.914063 80.109375 L 220.878906 80.109375 L 224.257813 71.941406 L 247.832031 71.941406 L 251.367188 80.109375 L 243.566406 80.109375 L 243.566406 90.886719 "/>
<path style=" stroke:none;fill-rule:nonzero;fill:rgb(9.799194%,45.899963%,73.699951%);fill-opacity:1;" d="M 212.128906 35.152344 L 212.128906 24.984375 L 185.976563 24.984375 L 185.976563 35.152344 L 192.257813 35.152344 L 182.648438 56.285156 L 169.277344 35.152344 L 175.390625 35.152344 L 175.390625 24.984375 L 150.066406 24.984375 L 150.066406 35.152344 L 157.046875 35.152344 L 177.671875 67.375 L 172.238281 80.109375 L 154.578125 80.109375 L 154.578125 90.886719 L 180.464844 90.886719 L 205.335938 35.152344 L 212.128906 35.152344 "/>
<path style=" stroke:none;fill-rule:nonzero;fill:rgb(9.799194%,45.899963%,73.699951%);fill-opacity:1;" d="M 26.578125 48.882813 L 36.316406 48.882813 L 36.316406 35.152344 L 46.917969 35.128906 L 46.917969 80.035156 L 31.457031 80.035156 L 31.457031 90.859375 C 31.457031 90.859375 59.933594 90.886719 75.957031 90.886719 L 75.957031 80.035156 L 59.507813 80.035156 L 59.507813 35.128906 L 70.027344 35.089844 L 70.027344 48.882813 L 80.167969 48.882813 L 80.167969 24.984375 L 26.578125 24.984375 L 26.578125 48.882813 "/>
<path style=" stroke:none;fill-rule:nonzero;fill:rgb(9.799194%,45.899963%,73.699951%);fill-opacity:1;" d="M 118.445313 80.136719 C 107.203125 80.136719 95.972656 72.566406 95.972656 57.480469 C 95.972656 44.886719 105.496094 35.480469 118.273438 35.480469 L 118.445313 35.480469 C 131.199219 35.558594 140.964844 44.941406 140.964844 57.480469 C 140.964844 72.566406 129.667969 80.136719 118.445313 80.136719 M 118.800781 23.914063 L 118.445313 23.914063 C 99.6875 24.140625 84.460938 39.21875 84.460938 57.722656 C 84.460938 76.238281 99.6875 91.347656 118.445313 91.542969 L 118.800781 91.542969 C 137.746094 91.542969 153.199219 76.363281 153.199219 57.722656 C 153.199219 39.125 137.746094 23.914063 118.800781 23.914063 "/>
</g>
</svg>
